<svg width="25" height="25" viewBox="0 0 25 25" fill="none" xmlns="http://www.w3.org/2000/svg">
<path d="M12.5 0C5.59646 0 0 5.59646 0 12.5C0 19.4035 5.59646 25 12.5 25C19.4003 24.9922 24.9922 19.4003 25 12.5C25 5.59646 19.4035 0 12.5 0ZM12.5 24.1667C6.05667 24.1667 0.833333 18.9433 0.833333 12.5C0.833333 6.05667 6.05667 0.833333 12.5 0.833333C18.9403 0.840677 24.1593 6.05974 24.1667 12.5C24.1667 18.9433 18.9433 24.1667 12.5 24.1667Z" fill="black"/>
<path d="M16.1261 5.71311C16.2859 5.54759 16.2814 5.28384 16.1158 5.12395C15.9503 4.96405 15.6866 4.96864 15.5267 5.13416L8.45543 12.2054C8.29277 12.3681 8.29277 12.6319 8.45543 12.7946L15.5267 19.8658C15.6048 19.9439 15.7107 19.9879 15.8213 19.9879C15.9317 19.9879 16.0377 19.944 16.1157 19.8659C16.2785 19.7032 16.2785 19.4394 16.1158 19.2767L9.33918 12.5L16.1158 5.72332C16.1193 5.71999 16.1227 5.71655 16.1261 5.71311Z" fill="black"/>
</svg>
