<svg width="130" height="174" viewBox="0 0 130 174" fill="none" xmlns="http://www.w3.org/2000/svg">
<g clip-path="url(#clip0)">
<path d="M39.6461 163.163C39.6461 163.163 33.7729 150.284 24.922 146.573C21.2077 145.016 19.6341 144.156 17.4168 140.152" stroke="#E6E6E6" stroke-width="2" stroke-miterlimit="10"/>
<path d="M19.8071 151.414C21.1349 150.845 24.1483 146.22 24.1483 146.22C24.1483 146.22 19.4663 144.895 18.1383 145.463C17.5214 145.755 17.0203 146.332 16.741 147.073C16.4617 147.814 16.4259 148.66 16.6414 149.432C16.8568 150.205 17.3065 150.843 17.8955 151.213C18.4845 151.583 19.1665 151.655 19.7976 151.414L19.8071 151.414Z" fill="#E6E6E6"/>
<path d="M28.6809 157.929C30.0667 157.646 33.6733 153.72 33.6733 153.72C33.6733 153.72 29.2389 151.433 27.8524 151.716C27.5227 151.783 27.207 151.93 26.9232 152.149C26.6394 152.367 26.3932 152.653 26.1986 152.989C26.0039 153.325 25.8647 153.705 25.7888 154.108C25.7129 154.51 25.7018 154.928 25.7563 155.336C25.8107 155.743 25.9295 156.134 26.1059 156.485C26.2824 156.836 26.513 157.141 26.7846 157.382C27.0562 157.623 27.3634 157.795 27.6889 157.889C28.0143 157.983 28.3514 157.997 28.6811 157.929L28.6809 157.929Z" fill="#E6E6E6"/>
<path d="M15.8239 135.719C16.9738 136.717 18.8539 142.189 18.8539 142.189C18.8539 142.189 14.0556 141.876 12.9046 140.879C12.6278 140.644 12.3914 140.342 12.2092 139.993C12.027 139.644 11.9025 139.253 11.8429 138.844C11.7832 138.435 11.7897 138.015 11.8619 137.609C11.9341 137.203 12.0705 136.818 12.2634 136.478C12.4563 136.137 12.7017 135.847 12.9856 135.625C13.2694 135.402 13.5861 135.251 13.9173 135.181C14.2485 135.111 14.5877 135.122 14.9153 135.215C15.2428 135.308 15.5523 135.48 15.8258 135.721L15.8239 135.719Z" fill="#E6E6E6"/>
<path d="M39.2358 162.852C39.2358 162.852 37.8422 144.998 29.4998 135.501C26 131.514 23.5688 126.301 22.7016 120.507C22.2932 117.761 22.0895 114.974 22.0929 112.181" stroke="#535461" stroke-width="2" stroke-miterlimit="10"/>
<path d="M16.8681 106.158C17.5046 108.114 22.2138 112.359 22.2138 112.359C22.2138 112.359 23.2282 105.259 22.5916 103.302C22.4421 102.833 22.219 102.406 21.9353 102.044C21.6516 101.682 21.3129 101.393 20.9386 101.194C20.5644 100.995 20.162 100.89 19.7546 100.884C19.3472 100.878 18.943 100.972 18.5651 101.16C18.1872 101.349 17.8431 101.627 17.5527 101.981C17.2623 102.335 17.0313 102.756 16.873 103.22C16.7147 103.685 16.6322 104.183 16.6303 104.688C16.6284 105.192 16.7071 105.691 16.8619 106.158H16.8681Z" fill="#3B2E5A"/>
<path d="M15.6639 119.352C17.0576 120.565 22.8757 120.961 22.8757 120.961C22.8757 120.961 20.6101 114.319 19.2165 113.104C18.8852 112.814 18.5107 112.607 18.1146 112.495C17.7185 112.384 17.3086 112.371 16.9083 112.456C16.508 112.541 16.1252 112.723 15.7819 112.992C15.4386 113.261 15.1415 113.61 14.9077 114.021C14.6739 114.432 14.508 114.897 14.4194 115.387C14.3309 115.878 14.3215 116.385 14.3917 116.88C14.4619 117.375 14.6105 117.848 14.8287 118.272C15.047 118.696 15.3308 119.062 15.6637 119.35L15.6639 119.352Z" fill="#3B2E5A"/>
<path d="M21.9026 137.764C23.606 137.94 28.7845 134.648 28.7845 134.648C28.7845 134.648 24.1186 130.324 22.4199 130.154C22.0112 130.1 21.5981 130.148 21.2046 130.295C20.8112 130.442 20.4454 130.684 20.1286 131.008C19.8119 131.332 19.5507 131.731 19.3602 132.181C19.1697 132.632 19.0538 133.125 19.0194 133.632C18.9849 134.138 19.0326 134.648 19.1596 135.132C19.2866 135.616 19.4903 136.063 19.7589 136.448C20.0274 136.833 20.3554 137.147 20.7235 137.373C21.0916 137.599 21.4924 137.732 21.9026 137.764Z" fill="#3B2E5A"/>
<path d="M29.1561 150.381C30.8069 150.91 36.3648 148.748 36.3648 148.748C36.3648 148.748 32.3555 143.517 30.7062 142.988C30.3134 142.86 29.904 142.829 29.5015 142.897C29.0991 142.966 28.7115 143.132 28.361 143.386C28.0105 143.64 27.704 143.977 27.459 144.378C27.2141 144.779 27.0355 145.236 26.9336 145.723C26.8317 146.209 26.8084 146.716 26.8651 147.214C26.9218 147.712 27.0573 148.191 27.2639 148.623C27.4706 149.056 27.7442 149.434 28.0692 149.736C28.3941 150.038 28.764 150.257 29.1576 150.381L29.1561 150.381Z" fill="#3B2E5A"/>
<path d="M29.0108 118.342C28.3201 120.272 23.4979 124.317 23.4979 124.317C23.4979 124.317 22.6773 117.178 23.3662 115.251C23.5303 114.792 23.7657 114.378 24.0591 114.032C24.3524 113.686 24.698 113.415 25.0761 113.234C25.4541 113.053 25.8573 112.966 26.2624 112.978C26.6676 112.99 27.0669 113.101 27.4376 113.304C27.8082 113.507 28.1429 113.798 28.4225 114.161C28.7022 114.524 28.9213 114.952 29.0674 115.42C29.2135 115.888 29.2837 116.386 29.274 116.888C29.2643 117.389 29.1748 117.883 29.0108 118.342V118.342Z" fill="#3B2E5A"/>
<path d="M37.3418 133.23C36.2175 134.814 30.638 136.89 30.638 136.89C30.638 136.89 31.5811 129.775 32.7054 128.192C33.2453 127.431 34.0073 126.967 34.8238 126.901C35.6403 126.836 36.4444 127.174 37.0593 127.842C37.6741 128.511 38.0493 129.454 38.1022 130.464C38.1552 131.474 37.8817 132.469 37.3418 133.23V133.23Z" fill="#3B2E5A"/>
<path d="M43.8366 149.076C42.9384 150.873 37.7282 154.087 37.7282 154.087C37.7282 154.087 37.6848 146.878 38.5768 145.08C38.7889 144.653 39.067 144.281 39.3953 143.986C39.7236 143.691 40.0955 143.479 40.49 143.362C40.8844 143.245 41.2936 143.226 41.6942 143.304C42.0947 143.383 42.4788 143.559 42.8246 143.821C43.1703 144.084 43.4708 144.428 43.709 144.834C43.9473 145.24 44.1185 145.701 44.213 146.189C44.3075 146.677 44.3233 147.183 44.2596 147.679C44.196 148.175 44.054 148.65 43.8419 149.078L43.8366 149.076Z" fill="#3B2E5A"/>
<path d="M64.9703 174C100.852 174 129.941 171.643 129.941 168.736C129.941 165.829 100.852 163.472 64.9703 163.472C29.0882 163.472 0 165.829 0 168.736C0 171.643 29.0882 174 64.9703 174Z" fill="#E6E6E6"/>
<path opacity="0.1" d="M114.817 47.8825C114.817 47.8825 120.287 45.7142 120.847 47.8825H114.817Z" fill="black"/>
<path d="M66.7974 56.0261C66.7974 56.0261 68.0338 47.9993 72.0144 47.9585L74.922 55.3654L72.983 57.0202C72.983 57.0202 68.7694 57.1859 66.7974 56.0261Z" fill="#D0CDE1"/>
<path opacity="0.502" d="M74.9218 55.3634L72.9828 57.0203C72.9828 57.0203 70.0265 57.1365 67.898 56.4909C67.5195 56.3815 67.1508 56.2258 66.7972 56.0261C66.7998 55.982 66.8074 55.9385 66.8198 55.897C66.8193 55.887 66.8193 55.8769 66.8198 55.8668C67.0026 54.8594 67.2545 53.873 67.5727 52.9186C67.6945 52.5591 67.8336 52.187 67.9831 51.8168C68.5657 50.4288 69.3848 49.0687 70.5047 48.3951C70.9192 48.143 71.3705 47.9967 71.8316 47.9648H72.0091L72.0716 48.1284L73.0563 50.631L74.9218 55.3634Z" fill="black"/>
<path d="M107.959 88.7159C107.959 88.7159 112.133 88.2195 112.507 88.5911C112.88 88.9628 115.249 90.8679 116.652 89.667C118.056 88.4661 117.12 84.2873 117.12 84.1214C117.12 83.9556 116.988 78.0401 116.988 78.0401L114.478 73.861L111.336 66.5446L104.916 65.7592L105.09 77.3797L105.057 83.3384L107.959 88.7159Z" fill="#D0CDE1"/>
<path opacity="0.503" d="M107.959 88.7159C107.959 88.7159 112.133 88.2195 112.507 88.5911C112.88 88.9628 115.249 90.8679 116.652 89.667C118.056 88.4661 117.12 84.2873 117.12 84.1214C117.12 83.9556 116.988 78.0401 116.988 78.0401L114.478 73.861L111.336 66.5446L104.916 65.7592L105.09 77.3797L105.057 83.3384L107.959 88.7159Z" fill="black"/>
<path d="M71.1763 47.7521C71.1763 47.7521 70.8441 52.8006 68.3017 52.8823C68.3017 52.8823 67.5818 52.3443 66.6132 51.449C64.3804 49.381 60.8362 45.4063 61.8154 41.7094C63.2205 36.4136 70.0408 46.1789 70.0408 46.1789L70.5625 46.9061L71.1763 47.7521Z" fill="#FBBEBE"/>
<path opacity="0.1" d="M71.1761 47.7519C71.1761 47.7519 70.8439 52.8004 68.3015 52.882C68.3015 52.882 67.5816 52.3441 66.613 51.4488L66.3957 51.1044C66.8265 51.3828 67.3014 51.5407 67.7869 51.567C68.4251 51.5842 69.1434 51.2915 69.6042 50.1511C69.8685 49.5013 70.1008 48.8322 70.2998 48.1476C70.4216 47.7467 70.5079 47.3306 70.5571 46.9066L71.1761 47.7519Z" fill="black"/>
<path d="M70.0735 56.8955L69.5013 55.9853L67.5711 52.9188L66.5902 51.3522C67.0207 51.6319 67.4958 51.7906 67.9815 51.817C68.6197 51.8341 69.338 51.5415 69.8006 50.3988C70.065 49.7491 70.2973 49.08 70.4962 48.3953C70.8144 47.2784 70.8074 46.703 70.6968 46.5103C70.5861 46.3176 71.4062 47.2613 71.801 47.7241L71.8149 47.7412C71.9279 47.8703 72.0009 47.9565 72.0009 47.9565L72.0687 48.1244L73.0373 50.5216L73.0477 50.6227C73.1359 51.3844 73.4629 56.2111 70.0735 56.8955Z" fill="#E6E6E6"/>
<path d="M90.1032 163.403C90.1032 163.403 87.2951 165.679 85.8911 165.339C84.4871 164.999 83.0479 165.92 83.0479 165.92C82.0804 167.229 80.8603 168.211 79.502 168.776C77.2291 169.727 74.0538 169.355 72.2487 168.608C71.3931 168.257 71.3253 167.801 71.7357 167.242C72.193 166.616 73.2417 165.86 74.4555 164.967C76.7614 163.271 79.236 159.919 79.236 159.919C79.236 159.919 79.269 159.092 79.6707 158.72C79.9168 158.46 80.1427 158.172 80.3454 157.859C80.7037 157.334 81.041 156.783 81.041 156.783L89.3011 157.115C89.3011 157.115 89.442 157.853 89.5515 158.606C89.6435 159.224 89.7156 159.852 89.668 160.095C89.5671 160.631 89.9026 161.128 89.9026 161.128L90.0505 162.817L90.1032 163.403Z" fill="#2F2E41"/>
<path d="M107.394 166.256C107.295 166.751 107.175 167.64 107.12 168.057C107.102 168.199 107.092 168.285 107.092 168.285C107.092 168.285 106.423 170.106 102.712 170.769C99.0012 171.432 99.001 169.237 99.001 169.237C99.001 169.237 99.0148 169 99.0393 168.645C99.1036 167.676 99.2375 165.824 99.3348 165.43C99.4687 164.892 99.2356 162.533 99.2356 162.533L99.1957 160.067L99.1678 158.345L105.321 157.558C105.361 158.128 105.427 158.694 105.52 159.254C105.558 159.561 105.65 159.855 105.789 160.115C106.123 160.573 106.325 162.598 106.325 162.598C106.325 162.598 107.524 165.593 107.394 166.256Z" fill="#2F2E41"/>
<path opacity="0.1" d="M89.3077 157.113C89.3077 157.113 89.4484 157.851 89.558 158.604C88.666 158.807 84.7653 159.643 83.7898 159.058C82.6874 158.395 80.3118 158.023 80.3118 158.023L80.3518 157.855C80.7101 157.33 81.0474 156.779 81.0474 156.779L89.3077 157.113Z" fill="black"/>
<path opacity="0.1" d="M105.516 159.262C103.951 158.935 100.539 159.727 99.193 160.067L99.1651 158.345L105.318 157.558C105.356 158.13 105.423 158.699 105.516 159.262Z" fill="black"/>
<path d="M108.995 96.536L108.862 102.37C108.862 102.37 109.036 111.266 108.528 112.673C108.02 114.081 108.025 119.749 108.025 119.749C108.025 119.749 108.361 122.439 107.992 123.015C107.624 123.592 107.891 125.748 108.166 126.865C108.441 127.982 108.198 130.756 108.198 130.756L108.132 146.396C108.132 146.396 107.765 150.451 107.295 151.031C107.16 151.203 107.065 151.416 107.018 151.649C106.971 151.881 106.975 152.125 107.029 152.355C107.029 152.355 106.628 154.67 106.728 155.085C106.829 155.5 107.029 156.449 106.261 156.903C105.492 157.358 105.69 158.808 105.69 158.808C103.852 158.27 98.6368 159.72 98.6368 159.72C98.6368 159.72 97.5935 157.071 97.1639 155.292C96.7343 153.512 97.8004 152.395 98.5012 152.279C99.2019 152.163 98.0003 150.622 98.0003 150.622C98.0003 150.622 98.1341 150.407 97.7997 148.926C97.4653 147.446 97.8657 143.628 97.9736 142.636C98.0816 141.644 98.5754 136.843 98.5754 136.843C98.5754 136.843 98.3093 130.762 98.5094 130.512C98.7094 130.263 99.3788 127.863 99.0449 127.069C98.711 126.275 98.1755 121.111 98.1755 120.829C98.1755 120.547 97.7408 113.835 97.7408 113.835C97.7408 113.835 97.3409 109.159 97.4399 108.167C97.5389 107.175 97.1721 103.493 97.1721 103.493C97.1721 100.429 95.7358 97.1191 95.7358 97.1191L95.6993 97.2375L92.5918 107.351C92.5918 107.351 92.0909 110.412 91.6546 112.15C91.3807 113.331 91.163 114.53 91.0025 115.742L90.973 115.957C90.9608 116.049 90.9504 116.129 90.9434 116.189L90.9227 116.357C90.9227 116.357 91.1557 118.55 90.7888 119.254C90.4219 119.958 90.0048 122.066 90.0048 122.654C90.0048 123.241 90.0361 125.471 90.0361 125.471C90.0361 125.471 90.1718 129.897 89.8031 130.394C89.4344 130.892 89.6291 131.305 89.6291 131.305C89.6291 131.305 90.2325 134.655 89.9648 135.524C89.6971 136.393 89.8988 138.418 89.8988 138.418C89.8988 138.418 89.3684 144.818 89.3093 145.154C89.2502 145.489 88.8746 148.05 89.2745 148.257C89.6743 148.463 90.4447 149.705 90.4447 149.705C90.4447 149.705 90.6187 155.126 90.0117 155.539C89.4047 155.952 89.7422 158.063 89.7422 158.063C89.7422 158.063 84.8957 159.223 83.7914 158.56C82.6872 157.896 80.3134 157.525 80.3134 157.525L80.6457 156.165C80.6274 156.212 80.4057 156.653 80.2474 154.96C80.0735 153.18 81.4855 154.049 81.4855 154.049C81.4855 154.049 82.588 154.381 80.8143 152.229C79.0407 150.077 79.9118 147.884 80.012 147.884C80.1123 147.884 80.3459 144.699 80.3459 144.699C80.3459 144.699 80.6468 142.795 80.4119 141.306C80.1771 139.816 79.9789 135.181 79.9789 135.181C79.9789 135.181 80.1528 131.665 79.845 130.382C79.5372 129.1 80.0456 126.782 80.1459 126.242C80.2462 125.702 79.845 120.782 79.845 120.782C79.845 120.782 80.1807 118.466 79.9789 116.77C79.777 115.075 80.1805 108.826 80.1805 108.826L80.7823 101.625C80.7823 101.625 81.2153 99.3913 81.1491 98.4813C81.0829 97.5713 81.65 94.3927 81.65 94.3927C81.65 94.3927 81.584 93.2329 81.9179 92.407C82.2517 91.5812 82.3874 88.8498 82.3874 88.8498L85.5975 79.7449L87.1626 71.7182L108.396 71.47C108.396 71.47 108.474 72.1649 108.601 73.4303C108.728 74.6957 108.912 76.5699 109.122 78.8812C109.307 80.9814 109.508 83.4518 109.706 86.1978C110.333 94.9629 108.995 96.536 108.995 96.536Z" fill="#2F2E41"/>
<path d="M107.023 24.083L102.073 30.6228C102.073 30.6228 95.7217 27.4767 96.3894 26.4008C96.6486 25.9834 96.6068 24.6792 96.4573 23.2193C96.2226 20.9297 95.7217 18.2892 95.7217 18.2892C95.7217 18.2892 106.822 16.0554 105.884 18.3709C105.537 19.2189 105.603 20.2065 105.815 21.119C106.086 22.1809 106.494 23.1815 107.023 24.0821V24.083Z" fill="#FBBEBE"/>
<path opacity="0.1" d="M105.885 18.3718C105.537 19.2197 105.38 19.3014 105.594 20.2139C104.142 22.1506 102.29 24.2488 100.001 24.2488C98.7716 24.2512 97.5582 23.899 96.4575 23.2201C96.2228 20.9306 95.7219 18.2901 95.7219 18.2901C95.7219 18.2901 106.822 16.0563 105.885 18.3718Z" fill="black"/>
<path d="M107.959 14.1521C107.959 16.7643 107.12 19.2695 105.628 21.1166C104.135 22.9636 102.111 24.0013 99.9998 24.0013C97.8889 24.0013 95.8644 22.9636 94.3718 21.1166C92.8791 19.2695 92.0406 16.7643 92.0406 14.1521C92.0406 14.1047 92.0406 14.0573 92.0406 14.0102C92.0558 11.3985 92.9088 8.90131 94.4119 7.0679C95.915 5.2345 97.945 4.21508 100.056 4.2339C102.166 4.25272 104.184 5.30824 105.666 7.16826C107.147 9.02828 107.971 11.5404 107.956 14.1521H107.959Z" fill="#FBBEBE"/>
<path opacity="0.1" d="M109.112 79.1205C108.058 79.1314 104.547 79.1679 100.624 79.2453H100.577L99.2803 79.2724H99.2404C94.5887 79.3649 90.0046 78.2394 88.1647 78.4547C84.252 78.9086 89.5688 73.9852 89.5688 73.9852C92.4842 74.8609 95.4831 75.236 98.4811 75.0998L99.6062 75.0287C103.162 74.7792 106.736 74.366 108.6 73.6731C108.729 74.9502 108.91 76.8181 109.112 79.1205Z" fill="black"/>
<path d="M109.112 78.873C108.058 78.873 104.547 78.9204 100.624 78.9958H100.577L99.2796 79.0238H99.2396C94.5879 79.1163 90.0038 77.9908 88.164 78.2038C84.2513 78.6578 89.568 73.7361 89.568 73.7361C92.4836 74.6106 95.4824 74.9856 98.4804 74.8508L99.6054 74.7776C103.161 74.5294 106.735 74.1149 108.599 73.422C108.729 74.7005 108.91 76.5618 109.112 78.873Z" fill="#7C5C5C"/>
<path opacity="0.1" d="M97.8608 26.8139L91.7082 30.3732L86.9609 75.8045C86.9609 75.8045 89.769 74.2336 91.3736 75.2257C92.9782 76.2179 97.926 75.3097 97.926 75.3097C97.926 75.3097 101.538 75.0601 102.073 75.5579C102.609 76.0557 108.893 73.4899 108.893 73.4899C108.893 73.4899 110.03 70.3438 109.161 69.8489C108.291 69.3541 109.429 64.4692 109.429 64.4692L108.893 31.6975L107.824 27.478L104.949 25.3247L102.003 28.2213L100.612 28.4695L97.8608 26.8139Z" fill="black"/>
<path d="M97.8608 26.3168L91.7082 29.8761L86.9609 75.3115C86.9609 75.3115 89.769 73.7385 91.3736 74.7327C92.9782 75.7269 97.926 74.8144 97.926 74.8144C97.926 74.8144 101.538 74.5662 102.073 75.0626C102.609 75.559 108.893 72.9946 108.893 72.9946C108.893 72.9946 110.03 69.8507 109.161 69.3536C108.291 68.8565 109.429 63.9739 109.429 63.9739L108.893 31.1979L107.824 26.9784L104.949 24.8253L102.003 27.7239L100.612 27.9692L97.8608 26.3168Z" fill="#E6E6E6"/>
<path opacity="0.1" d="M97.76 28.4276C97.76 28.4276 99.5319 31.0336 99.4989 31.5715C99.4659 32.1094 99.3997 33.392 99.3997 33.392L98.0608 36.7448C98.0608 36.7448 97.3252 40.9239 97.3252 41.7933C97.3252 42.6627 96.155 50.1858 96.155 50.1858L94.7509 61.7718L92.9789 76.9575L94.7841 80.8051L96.9248 78.5713L99.7663 51.5087L100.368 46.1719C100.368 46.1719 101.003 36.5722 101.003 35.58C101.003 34.5879 100.636 31.9799 100.636 31.9799C100.636 31.9799 101.071 29.4965 102.876 28.9177C104.681 28.339 102.742 28.7929 102.742 28.7929L101.699 27.7579L100.796 28.2142C100.796 28.2142 98.2955 27.2699 97.76 28.4276Z" fill="black"/>
<path d="M97.5599 28.1845C97.5599 28.1845 99.3319 30.7904 99.2989 31.3283C99.2659 31.8662 99.1981 33.1488 99.1981 33.1488L97.8608 36.5016C97.8608 36.5016 97.134 40.676 97.134 41.5436C97.134 42.4111 95.9637 49.9361 95.9637 49.9361L94.5498 61.5392L92.7864 76.7147L94.5932 80.5646L96.7235 78.3245L99.568 51.2683L100.17 45.9314C100.17 45.9314 100.805 36.3317 100.805 35.3375C100.805 34.3433 100.438 31.7374 100.438 31.7374C100.438 31.7374 100.872 29.2553 102.678 28.6752C104.483 28.0951 102.544 28.5525 102.544 28.5525L101.5 27.5175L100.612 27.9687C100.612 27.9687 98.0955 27.021 97.5599 28.1845Z" fill="#2F2E41"/>
<path opacity="0.1" d="M96.3896 23.8354C96.3896 23.8354 96.1217 24.0837 96.0557 25.7378C95.9897 27.392 95.0529 31.1176 95.0529 31.1176C95.0529 31.1176 98.5308 28.1371 100.27 28.4685L96.3896 23.8354Z" fill="black"/>
<path d="M96.3896 23.3384C96.3896 23.3384 96.1217 23.5866 96.0557 25.2428C95.9897 26.899 95.0529 30.6225 95.0529 30.6225C95.0529 30.6225 98.5308 27.6441 100.27 27.9758L96.3896 23.3384Z" fill="#E6E6E6"/>
<path opacity="0.1" d="M105.886 22.51L100.402 28.4687C100.402 28.4687 105.017 31.8624 105.619 32.6907C106.22 33.5191 106.822 24.5791 106.822 24.5791L105.886 22.51Z" fill="black"/>
<path d="M106.086 22.0149L100.612 27.9693C100.612 27.9693 105.225 31.3607 105.829 32.1888C106.433 33.0169 107.034 24.0782 107.034 24.0782L106.086 22.0149Z" fill="#E6E6E6"/>
<path opacity="0.1" d="M96.5897 23.8357C96.5897 23.8357 95.9879 23.4634 95.4194 24.5395C94.8509 25.6156 93.7812 26.1104 93.7812 26.1104C93.7812 26.1104 87.6948 27.3113 87.4618 28.3032L84.6204 28.5184C84.6204 28.5184 83.6175 28.682 83.5161 31.2902C83.4147 33.8984 82.8744 34.1394 82.8744 34.1394C82.8744 34.1394 81.7042 36.7045 81.8032 38.0279C81.9022 39.3513 80.9006 40.0135 80.9006 40.0135L85.0742 53.4618C85.0742 53.4618 85.2081 59.0073 84.4378 61.0343C83.6676 63.0612 82.2315 72.0413 82.2315 72.0413C82.2315 72.0413 82.8349 71.8757 82.8002 72.3705C82.7656 72.8653 82.0647 78.2884 82.0647 78.2884C82.0647 78.2884 81.8641 80.4403 81.5308 81.185C81.1974 81.9296 81.1621 85.8203 81.1621 85.8203L80.6265 88.6329C80.6265 88.6329 81.8976 92.1514 83.8367 91.6457C85.7757 91.14 89.3093 81.7685 89.3093 81.7685L91.5492 71.6308L93.2882 61.618L93.7891 54.833L94.5925 39.8125L95.7627 29.8813C95.7627 29.8813 97.0592 24.5404 96.5897 23.8357Z" fill="black"/>
<path d="M96.3897 23.3385C96.3897 23.3385 95.7879 22.9662 95.2194 24.0423C94.6508 25.1184 93.5812 25.6152 93.5812 25.6152C93.5812 25.6152 87.4948 26.8138 87.2618 27.808L84.4185 28.0233C84.4185 28.0233 83.4156 28.1889 83.3161 30.7951C83.2165 33.4012 82.6797 33.6506 82.6797 33.6506C82.6797 33.6506 81.5094 36.2157 81.6103 37.539C81.7111 38.8624 80.7077 39.5247 80.7077 39.5247L84.8813 52.9729C84.8813 52.9729 85.0151 58.5185 84.2466 60.5454C83.478 62.5724 82.0402 71.5525 82.0402 71.5525C82.0402 71.5525 82.642 71.3868 82.609 71.8839C82.576 72.381 81.8734 77.7996 81.8734 77.7996C81.8734 77.7996 81.6728 79.9515 81.3379 80.6961C81.0029 81.4407 80.971 85.3315 80.971 85.3315L80.4396 88.1351C80.4396 88.1351 81.7107 91.6535 83.6498 91.1478C85.5888 90.6422 89.0998 81.2598 89.0998 81.2598L91.3413 71.1222L93.0803 61.1071L93.5829 54.322L94.3852 39.3015L95.5554 29.3704C95.5554 29.3704 96.8574 24.0421 96.3897 23.3385Z" fill="#2F2E41"/>
<path opacity="0.1" d="M74.922 55.3634L72.9829 57.0212C72.9829 57.0212 70.0266 57.1374 67.8981 56.4918L66.82 55.8979L66.6026 55.7817L66.8252 55.8677C67.9434 56.2788 68.8181 56.27 69.5015 55.9861C72.2455 54.8435 71.9361 49.2356 71.8369 47.9659C71.8265 47.8389 71.8187 47.7507 71.8143 47.725C71.8139 47.7199 71.8139 47.7149 71.8143 47.7098L71.83 47.7421C71.8674 47.8184 71.9101 47.8904 71.9576 47.9574C71.9959 48.0111 72.0359 48.067 72.0794 48.1187L73.048 50.5159L73.0584 50.617L74.922 55.3634Z" fill="black"/>
<path d="M81.6431 39.1852L80.7075 39.5166L80.5737 41.8839C80.5737 41.8839 79.4694 41.6686 79.1685 43.2912C78.8677 44.9138 78.3338 45.6584 78.3338 45.6584C78.3338 45.6584 76.4939 47.5628 76.3931 49.1745L75.2575 50.0354C75.2575 50.0354 72.6135 49.2736 72.0144 47.9595C72.0144 47.9595 73.2178 58.6352 66.7974 56.0271C66.7974 56.0271 73.9864 59.9178 74.3203 60.4557C74.6541 60.9936 76.8626 62.5646 78.8677 61.2412C80.8727 59.9178 81.3092 57.882 81.3092 57.882C81.3092 57.882 83.2483 54.5295 83.3161 54.0322C83.3839 53.5348 84.8811 52.9563 84.8811 52.9563L87.7576 44.3479L81.6431 39.1852Z" fill="#2F2E41"/>
<path opacity="0.1" d="M105.118 27.4766L106.086 22.0161C106.086 22.0161 106.521 23.7957 106.956 24.2089L108.394 25.5731C108.394 25.5731 109.832 26.4017 110.333 26.4017C110.834 26.4017 113.543 27.2625 113.877 27.7251C114.211 28.1876 115.55 27.8498 115.55 27.8498C115.55 27.8498 116.652 28.3038 117.623 28.5945C118.593 28.8851 119.061 30.8712 118.859 31.6566C118.778 32.0477 118.779 32.4578 118.861 32.8485C118.943 33.2392 119.104 33.5977 119.329 33.8905C119.729 34.3869 119.931 36.0016 119.931 36.0016C120.422 36.1997 120.831 36.6306 121.066 37.2002C121.402 38.1104 121.301 40.0968 121.301 40.0968L116.319 48.7862C116.319 48.7862 116.385 52.139 116.185 52.8748C115.985 53.6107 116.881 66.2813 116.881 66.2813L117.924 88.0458C117.924 88.0458 116.554 89.494 116.253 89.6598C115.952 89.8256 115.65 81.9623 115.65 81.6741C115.65 81.386 107.927 67.3574 107.927 67.3574C107.927 67.3574 106.883 65.2874 106.883 64.8332C106.883 64.3789 105.913 60.1978 105.913 60.1978L104.441 52.1291L105.118 27.4766Z" fill="black"/>
<path d="M121.715 39.622C121.715 39.9061 121.702 40.0959 121.702 40.0959L116.724 48.7788C116.724 48.7788 116.794 52.1293 116.592 52.8674C116.476 53.2977 116.731 57.7523 116.968 61.4084C117.142 64.0484 117.295 66.2739 117.295 66.2739L117.735 75.5056L118.33 88.0384C118.33 88.0384 116.959 89.4865 116.658 89.6524C116.358 89.8182 116.057 81.9548 116.057 81.6647C116.057 81.3745 108.332 67.35 108.332 67.35C108.332 67.35 107.289 65.2799 107.289 64.8257C107.289 64.3715 106.32 60.1904 106.32 60.1904L104.849 52.1208L105.517 27.462L106.085 22.0015C106.085 22.0015 106.922 23.7811 107.357 24.1922C107.791 24.6033 108.793 25.5587 108.793 25.5587C108.793 25.5587 110.231 26.3873 110.734 26.3873C111.236 26.3873 113.944 27.2481 114.278 27.7106C114.612 28.1732 115.951 27.8354 115.951 27.8354C115.951 27.8354 117.053 28.2894 118.022 28.58C118.99 28.8707 119.46 30.8568 119.26 31.64C119.179 32.0312 119.179 32.4415 119.261 32.8326C119.342 33.2236 119.503 33.5826 119.728 33.8758C120.129 34.3723 120.329 35.9847 120.329 35.9847C120.822 36.1842 121.231 36.6166 121.467 37.1876C121.701 37.8295 121.723 38.9771 121.715 39.622Z" fill="#2F2E41"/>
<path opacity="0.1" d="M80.8413 149.872C81.0153 149.872 88.0303 150.203 87.8963 151.61C87.7623 153.018 80.8413 149.872 80.8413 149.872Z" fill="black"/>
<path opacity="0.1" d="M82.4135 152.23C82.4135 152.23 87.1279 153.181 85.8915 154.05C84.655 154.92 82.4135 152.23 82.4135 152.23Z" fill="black"/>
<path opacity="0.1" d="M99.9336 148.961C99.9336 148.961 107.759 149.79 106.589 150.864C105.419 151.938 102.643 152.105 102.509 152.155C102.375 152.205 99.9336 148.961 99.9336 148.961Z" fill="black"/>
<path opacity="0.1" d="M98.998 153.224C98.998 153.224 103.345 154.134 103.478 155.161C103.61 156.187 98.998 153.224 98.998 153.224Z" fill="black"/>
<path opacity="0.1" d="M101.405 128.313C101.405 128.313 105.384 129.471 105.618 130.25L101.405 128.313Z" fill="black"/>
<path opacity="0.1" d="M86.0565 131.873C86.0565 131.873 83.9836 132.617 85.9905 134.107C87.9973 135.596 86.0565 131.873 86.0565 131.873Z" fill="black"/>
<path opacity="0.1" d="M95.2524 92.1076C95.4871 92.1076 99.1321 90.6183 100.402 91.2813C101.671 91.9442 103.245 91.9419 103.245 91.9419L95.2524 92.1076Z" fill="black"/>
<path opacity="0.1" d="M95.7219 96.8309L95.6854 97.2397L92.578 107.354C92.578 107.354 92.0771 110.414 91.6407 112.152C91.3669 113.333 91.1492 114.532 90.9887 115.744L93.749 94.567L95.7219 96.8309Z" fill="black"/>
<path d="M100.577 78.9957L99.2798 79.0237H99.2398L98.4798 74.8532C98.8536 74.8306 99.2274 74.8058 99.6049 74.7778L100.577 78.9957Z" fill="#2F2E41"/>
<path d="M116.352 73.9464L115.519 74.7943L112.737 77.6243C112.737 77.6243 105.212 82.5909 103.139 77.8739C101.312 73.7185 109.843 70.7511 111.897 70.1032C112.177 70.015 112.335 69.9719 112.335 69.9719L116.352 73.9464Z" fill="#FBBEBE"/>
<path opacity="0.1" d="M84.2185 33.2695C84.2185 33.2695 85.6896 34.0958 86.0237 35.2552C86.3577 36.4145 84.2185 33.2695 84.2185 33.2695Z" fill="black"/>
<path opacity="0.1" d="M79.6711 45.6819C79.6711 45.6819 77.5304 48.9097 78.4 50.1514C79.2696 51.3931 79.6711 45.6819 79.6711 45.6819Z" fill="black"/>
<path opacity="0.1" d="M117.924 35.09C117.924 35.09 115.917 35.3382 115.851 37.4894L117.924 35.09Z" fill="black"/>
<path opacity="0.1" d="M99.3319 69.0195C99.5325 68.7713 104.147 60.3301 105.217 61.0747L99.3319 69.0195Z" fill="black"/>
<path opacity="0.1" d="M107.959 14.1517C107.961 15.7735 107.638 17.3705 107.018 18.7999L106.959 18.7871C106.455 18.6558 106.192 17.9263 105.806 17.4743C105.57 17.1952 105.268 17.0148 104.945 16.9584C104.621 16.9021 104.291 16.9727 104.001 17.1602C103.708 17.3773 103.47 17.691 103.314 18.0662C103.157 18.4414 103.088 18.8631 103.114 19.2842C102.86 17.9585 102.94 16.5492 102.692 15.2213C102.443 13.8934 101.693 12.5508 100.669 12.5271C100.228 12.5271 99.711 12.7302 99.3928 12.3118C99.1997 12.0636 99.1598 11.6663 99.0154 11.3757C98.2833 9.90899 96.0591 10.6504 95.1444 11.4014C94.2644 12.1234 93.1751 13.3554 92.0446 14.001C92.0598 11.3894 92.9128 8.89215 94.4159 7.05875C95.1601 6.15094 96.0416 5.43342 97.0099 4.94716C97.9783 4.4609 99.0146 4.21542 100.06 4.22474C101.105 4.23406 102.138 4.498 103.1 5.00148C104.063 5.50495 104.936 6.23812 105.67 7.15911C106.403 8.08009 106.983 9.17087 107.376 10.3692C107.769 11.5674 107.967 12.8498 107.96 14.1429L107.959 14.1517Z" fill="black"/>
<path d="M99.0154 11.135C99.1612 11.4342 99.1997 11.8257 99.3928 12.0712C99.711 12.48 100.228 12.2713 100.669 12.2864C101.693 12.309 102.443 13.6529 102.692 14.9806C102.94 16.3083 102.866 17.7156 103.114 19.0422C103.088 18.6213 103.157 18.1998 103.314 17.8251C103.471 17.4504 103.71 17.1373 104.003 16.9211C104.292 16.7338 104.621 16.6632 104.945 16.7192C105.268 16.7752 105.569 16.9549 105.806 17.2332C106.192 17.6872 106.455 18.4146 106.959 18.546C107.463 18.6773 107.95 18.0789 108.131 17.4205C108.312 16.762 108.305 16.0411 108.42 15.359C108.647 14.0679 109.327 13.0123 109.705 11.7846C110.153 10.2909 110.14 8.64545 109.67 7.16236C109.42 6.38547 109.046 5.68621 108.801 4.90933C108.415 3.73012 106.274 2.14206 105.806 1.01859C105.018 -0.86213 105.526 0.310529 104.003 1.01859C103.276 1.35705 102.323 0.153482 101.585 0.452683C100.596 0.844396 99.5405 0.549483 98.5161 0.373031C97.4917 0.19658 96.3632 0.179431 95.5407 1.01859C94.5947 1.97621 94.3356 3.77728 93.4539 4.82967C93.0801 5.2708 92.6152 5.55173 92.2209 5.96149C91.8267 6.37126 91.487 6.97688 91.5253 7.64207C91.5844 8.50289 92.2627 9.27752 92.0122 10.0716C91.9216 10.301 91.7958 10.5064 91.6418 10.6763C90.896 11.6419 90.3418 12.8087 90.0228 14.0848C91.8121 14.7755 93.7495 12.3352 95.1494 11.1819C96.0558 10.4118 98.2833 9.67803 99.0154 11.135Z" fill="#2F2E41"/>
<path opacity="0.1" d="M116.351 73.9464L115.518 74.7944C114.784 73.288 111.771 70.2603 111.771 70.2603L111.901 70.1053C112.181 70.0171 112.339 69.974 112.339 69.974L116.351 73.9464Z" fill="black"/>
<path d="M117.155 72.4131C117.155 72.4131 116.856 73.3342 116.546 74.1348C116.236 74.9353 115.901 75.654 115.883 75.0667C115.85 73.9069 111.973 70.0161 111.973 70.0161L112.494 69.3843L113.105 68.6526L117.155 72.4131Z" fill="#E6E6E6"/>
<path opacity="0.1" d="M117.289 66.2885L117.729 75.5202C116.685 73.521 113.839 68.3974 112.003 68.563L116.452 62.2342C116.637 61.9783 116.807 61.7069 116.962 61.4219C117.132 64.0635 117.289 66.2885 117.289 66.2885Z" fill="black"/>
<path opacity="0.1" d="M117.155 72.4132C117.155 72.4132 116.856 73.3343 116.546 74.1348C115.381 72.1573 113.778 69.8203 112.498 69.3835L113.108 68.6517L117.155 72.4132Z" fill="black"/>
<path d="M120.499 38.9442L121.702 40.102C121.702 40.102 123.708 40.1451 123.909 42.2131C124.109 44.2811 125.948 45.2258 125.948 45.2258C125.948 45.2258 127.319 46.9215 127.319 47.7079C127.319 48.4943 128.362 49.9029 128.362 50.0255C128.362 50.148 129.365 52.6745 129.231 53.1285C129.098 53.5825 130.301 55.5708 129.927 56.3154C129.624 56.9832 129.356 57.6739 129.124 58.3834C129.124 58.3834 127.559 62.1083 126.75 62.8121C125.941 63.5159 122.27 69.4315 122.27 69.4315C122.27 69.4315 118.325 75.0588 118.325 76.7976C118.325 76.7976 114.477 68.8528 112.205 69.0506L116.652 62.7196C116.652 62.7196 117.422 61.6866 117.455 61.0647C117.488 60.4429 119.594 57.5899 120.598 57.4646C120.598 57.4646 120.772 55.7689 120.33 55.7272C119.888 55.6855 119.527 54.3607 119.527 54.3607C119.527 54.3607 116.585 50.0568 116.552 47.3261C116.519 44.5954 120.499 38.9442 120.499 38.9442Z" fill="#2F2E41"/>
<path opacity="0.1" d="M122.271 42.8691C122.271 42.8691 119.461 45.4342 120.065 46.2605C120.668 47.0868 122.271 42.8691 122.271 42.8691Z" fill="black"/>
<path opacity="0.1" d="M90.1032 163.403C90.1032 163.403 87.2951 165.679 85.8911 165.339C84.4871 164.999 83.0479 165.92 83.0479 165.92C82.0804 167.229 80.8603 168.211 79.502 168.776C77.2291 169.727 74.0538 169.355 72.2487 168.608C71.3931 168.257 71.3253 167.801 71.7357 167.242C73.699 167.726 78.0865 168.688 79.269 167.988C80.8063 167.078 83.013 165.092 83.013 165.092C83.013 165.092 85.8911 164.596 86.291 164.596C86.5762 164.596 88.7969 163.461 90.0507 162.809L90.1032 163.403Z" fill="black"/>
<path opacity="0.1" d="M85.6063 42.3721C85.6063 42.3721 85.6063 51.8061 84.9542 52.7378C84.3022 53.6695 85.6063 42.3721 85.6063 42.3721Z" fill="black"/>
<path opacity="0.1" d="M115.75 45.4128L116.718 48.7839C116.718 48.7839 117.104 45.4753 115.75 45.4128Z" fill="black"/>
<g opacity="0.1">
<path opacity="0.1" d="M92.1066 9.2477C92.3519 8.47081 91.7102 7.7113 91.6267 6.88049C91.5413 7.11526 91.5043 7.37258 91.5189 7.6294C91.5623 8.25555 91.9363 8.84312 92.0406 9.42189C92.0672 9.36658 92.0893 9.30815 92.1066 9.24747V9.2477Z" fill="black"/>
<path opacity="0.1" d="M103.205 18.1588C102.965 16.8525 103.031 15.4709 102.791 14.1669C102.551 12.8629 101.795 11.4942 100.77 11.4728C100.329 11.4728 99.8122 11.6729 99.4922 11.2575C99.3009 11.0122 99.261 10.6119 99.1166 10.3213C98.3845 8.85465 96.1602 9.59927 95.2438 10.3493C93.8751 11.4748 91.9972 13.8269 90.2442 13.293C90.159 13.5448 90.0801 13.7987 90.0164 14.0602C91.8057 14.7509 93.7431 12.3106 95.143 11.1573C96.0559 10.4064 98.2836 9.65094 99.0157 11.1293C99.1616 11.4285 99.2001 11.82 99.3932 12.0655C99.7113 12.4744 100.228 12.2657 100.67 12.2808C101.694 12.3034 102.443 13.6473 102.692 14.975C102.94 16.3026 102.866 17.71 103.114 19.0365C103.097 18.7399 103.128 18.4421 103.206 18.1606L103.205 18.1588Z" fill="black"/>
<path opacity="0.1" d="M108.232 16.605C108.058 17.2634 107.573 17.8661 107.058 17.7305C106.544 17.5949 106.291 16.8697 105.907 16.4177C105.67 16.1389 105.369 15.9589 105.045 15.9029C104.721 15.8469 104.392 15.9178 104.102 16.1056C103.823 16.3118 103.594 16.6064 103.438 16.959C103.282 17.3116 103.205 17.7094 103.215 18.1111C103.349 17.6047 103.629 17.1776 104.003 16.9125C104.292 16.7252 104.622 16.6546 104.945 16.7106C105.268 16.7666 105.569 16.9463 105.806 17.2246C106.192 17.6786 106.455 18.406 106.959 18.5374C107.463 18.6687 107.95 18.0703 108.131 17.4119C108.227 17.0253 108.289 16.6271 108.316 16.2241C108.294 16.353 108.266 16.4802 108.232 16.605Z" fill="black"/>
<path opacity="0.1" d="M109.804 10.9685C109.428 12.195 108.746 13.2538 108.521 14.5449C108.475 14.8053 108.449 15.0722 108.423 15.3389C108.653 14.0478 109.329 12.9977 109.705 11.7754C109.872 11.222 109.976 10.6426 110.015 10.0537C109.964 10.3647 109.893 10.6704 109.805 10.9682L109.804 10.9685Z" fill="black"/>
</g>
<path d="M64.2792 41.8217L64.2663 41.8297C64.2322 41.851 64.2184 41.9026 64.2356 41.9449L64.7383 43.1792C64.7555 43.2215 64.7972 43.2385 64.8314 43.2172L64.8442 43.2092C64.8784 43.1879 64.8921 43.1363 64.8749 43.094L64.3723 41.8597C64.355 41.8174 64.3134 41.8004 64.2792 41.8217Z" fill="#3A3768"/>
<path d="M62.854 39.4527L59.0335 41.8351C58.832 41.9607 58.751 42.2646 58.8525 42.5139L63.1458 53.0566C63.2473 53.3059 63.4929 53.4061 63.6943 53.2805L67.5148 50.8981C67.7163 50.7725 67.7973 50.4686 67.6958 50.2193L63.4025 39.6766C63.301 39.4273 63.0554 39.327 62.854 39.4527Z" fill="#3A3768"/>
<path d="M62.3404 40.1385C62.3182 40.1508 62.2983 40.1687 62.282 40.191C62.2658 40.2134 62.2535 40.2397 62.2459 40.2683C62.2384 40.2969 62.2358 40.3271 62.2383 40.357C62.2407 40.387 62.2483 40.4159 62.2603 40.442L62.2786 40.4829C62.2906 40.5091 62.298 40.5382 62.3004 40.5682C62.3028 40.5982 62.3 40.6285 62.2923 40.6571C62.2846 40.6857 62.2721 40.712 62.2557 40.7343C62.2392 40.7565 62.2192 40.7743 62.1969 40.7863L60.2684 41.9892C60.2473 42.0042 60.2239 42.0135 60.1998 42.0166C60.1756 42.0196 60.1512 42.0164 60.128 42.0071C60.1049 41.9977 60.0837 41.9825 60.0656 41.9624C60.0475 41.9422 60.0331 41.9176 60.0232 41.8902L60.0049 41.8471C59.995 41.8196 59.9806 41.795 59.9625 41.7749C59.9445 41.7548 59.9232 41.7395 59.9001 41.7302C59.877 41.7209 59.8525 41.7176 59.8284 41.7207C59.8042 41.7238 59.7808 41.7331 59.7597 41.748L59.3841 41.9804C59.3429 42.0058 59.3062 42.041 59.2761 42.084C59.246 42.127 59.2231 42.1769 59.2087 42.231C59.1943 42.285 59.1887 42.342 59.1922 42.3988C59.1958 42.4555 59.2083 42.5108 59.2293 42.5615L63.3319 52.6388C63.3524 52.6898 63.3809 52.7352 63.4156 52.7724C63.4504 52.8097 63.4907 52.838 63.5344 52.8559C63.5781 52.8737 63.6242 52.8806 63.67 52.8762C63.7159 52.8719 63.7605 52.8563 63.8015 52.8304L67.1664 50.7319C67.2073 50.7066 67.2438 50.6715 67.2738 50.6287C67.3037 50.5858 67.3266 50.5361 67.3409 50.4823C67.3553 50.4286 67.361 50.3718 67.3576 50.3153C67.3542 50.2588 67.3419 50.2037 67.3212 50.1532L63.2238 40.0742C63.2032 40.0238 63.1747 39.9788 63.14 39.942C63.1053 39.9052 63.0651 39.8772 63.0217 39.8596C62.9782 39.842 62.9324 39.8352 62.8869 39.8395C62.8413 39.8439 62.7969 39.8593 62.7561 39.8849L62.3404 40.1385Z" fill="#3B2E5A"/>
<path opacity="0.1" d="M40.8045 158.445H34.1549V159.748H40.8045V158.445Z" fill="black"/>
<path d="M55.6362 40.9407V66.6081C55.6367 66.9464 55.5832 67.2816 55.4788 67.5943C55.3744 67.907 55.2211 68.1911 55.0277 68.4304C54.8344 68.6696 54.6048 68.8593 54.3521 68.9885C54.0994 69.1177 53.8286 69.1839 53.5551 69.1833H51.32V38.3677H53.555C53.8282 38.3671 54.0988 38.4332 54.3514 38.5622C54.6039 38.6912 54.8334 38.8807 55.0267 39.1196C55.22 39.3585 55.3734 39.6423 55.4779 39.9547C55.5825 40.2671 55.6362 40.6019 55.636 40.94L55.6362 40.9407Z" fill="#D0CDE1"/>
<path opacity="0.2" d="M53.9393 41.6572V66.0073C53.8128 66.0333 53.6847 66.0462 53.5564 66.0459H53.2366V41.6187H53.5571C53.6852 41.6184 53.813 41.6313 53.9393 41.6572Z" fill="black"/>
<path d="M45.769 78.2399H37.7109V158.194H45.769V78.2399Z" fill="#D0CDE1"/>
<path d="M32.0512 156.94H50.5011C52.5267 156.94 54.4694 157.935 55.9018 159.708C57.3341 161.48 58.1388 163.884 58.1388 166.391V167.845H24.4134V166.391C24.4134 163.884 25.2181 161.48 26.6504 159.708C28.0828 157.935 30.0255 156.94 32.0512 156.94Z" fill="#D0CDE1"/>
<path opacity="0.1" d="M45.769 89.2471H37.7109V98.8377H45.769V89.2471Z" fill="black"/>
<path opacity="0.1" d="M45.769 88.5946H37.7109V98.1853H45.769V88.5946Z" fill="black"/>
<path d="M46.6077 88.9197H36.964V98.5103H46.6077V88.9197Z" fill="#D0CDE1"/>
<path d="M50.1096 72.2162V76.1965C50.1096 76.6869 50.0315 77.1725 49.8799 77.6256C49.7282 78.0786 49.5059 78.4903 49.2257 78.8371C48.9454 79.1838 48.6128 79.4589 48.2466 79.6465C47.8805 79.8342 47.4881 79.9307 47.0918 79.9307H36.3954C35.5951 79.9307 34.8276 79.5373 34.2617 78.837C33.6958 78.1367 33.3779 77.1869 33.3779 76.1965V72.2162C33.3784 71.2265 33.6966 70.2776 34.2625 69.5782C34.8284 68.8788 35.5957 68.4862 36.3954 68.4868H47.0918C47.8916 68.4862 48.6588 68.8788 49.2247 69.5782C49.7906 70.2776 50.1089 71.2265 50.1094 72.2162H50.1096Z" fill="#D0CDE1"/>
<path opacity="0.1" d="M50.1096 72.2162V72.6224C49.1273 74.2158 47.8611 75.5072 46.4096 76.3962C44.9581 77.2851 43.3604 77.7476 41.7409 77.7476C40.1214 77.7476 38.5237 77.2851 37.0722 76.3962C35.6207 75.5072 34.3545 74.2158 33.3722 72.6224V72.2162C33.3728 71.2265 33.691 70.2776 34.2569 69.5782C34.8228 68.8788 35.59 68.4862 36.3898 68.4868H47.0863C47.4828 68.4856 47.8756 68.5812 48.2423 68.768C48.6089 68.9548 48.9421 69.2293 49.2229 69.5757C49.5037 69.9221 49.7266 70.3336 49.8787 70.7867C50.0309 71.2398 50.1093 71.7256 50.1096 72.2162Z" fill="black"/>
<path d="M32.0661 35.1304H51.4157C51.6412 35.1304 51.8574 35.2412 52.0168 35.4385C52.1762 35.6358 52.2658 35.9033 52.2658 36.1823V66.1389C52.2658 69.1327 51.3047 72.0039 49.594 74.1208C47.8833 76.2378 45.5631 77.4271 43.1438 77.4271H40.3381C37.9187 77.4271 35.5985 76.2378 33.8878 74.1208C32.1771 72.0039 31.216 69.1327 31.216 66.1389V36.1823C31.216 35.9033 31.3056 35.6358 31.465 35.4385C31.6244 35.2412 31.8407 35.1304 32.0661 35.1304Z" fill="#D0CDE1"/>
<path d="M35.5653 23.3198H47.7639C49.5527 23.3198 51.0029 24.7159 51.0029 26.4382V35.3722C51.0029 35.993 50.4803 36.4959 49.8359 36.4959H33.4935C32.8489 36.4959 32.3265 35.9928 32.3265 35.3722V26.4368C32.3265 24.7148 33.7767 23.3185 35.5654 23.3185L35.5653 23.3198Z" fill="#D0CDE1"/>
<path opacity="0.2" d="M48.0781 30.1609H34.9588V31.359H48.0781V30.1609Z" fill="black"/>
<path opacity="0.1" d="M50.1076 38.976H33.3741V54.003H50.1076V38.976Z" fill="black"/>
<path d="M50.1076 38.6486H33.3741V53.6756H50.1076V38.6486Z" fill="#3B2E5A"/>
<g opacity="0.1">
<path opacity="0.1" d="M37.0884 56.2509H33.612C33.5325 56.2509 33.468 56.3307 33.468 56.4291V57.7354C33.468 57.8338 33.5325 57.9136 33.612 57.9136H37.0884C37.1679 57.9136 37.2324 57.8338 37.2324 57.7354V56.4291C37.2324 56.3307 37.1679 56.2509 37.0884 56.2509Z" fill="black"/>
<path opacity="0.1" d="M41.3482 56.2509H37.8719C37.7923 56.2509 37.7278 56.3307 37.7278 56.4291V57.7354C37.7278 57.8338 37.7923 57.9136 37.8719 57.9136H41.3482C41.4278 57.9136 41.4923 57.8338 41.4923 57.7354V56.4291C41.4923 56.3307 41.4278 56.2509 41.3482 56.2509Z" fill="black"/>
<path opacity="0.1" d="M45.6081 56.2509H42.1318C42.0522 56.2509 41.9877 56.3307 41.9877 56.4291V57.7354C41.9877 57.8338 42.0522 57.9136 42.1318 57.9136H45.6081C45.6877 57.9136 45.7522 57.8338 45.7522 57.7354V56.4291C45.7522 56.3307 45.6877 56.2509 45.6081 56.2509Z" fill="black"/>
<path opacity="0.1" d="M49.8698 56.2509H46.3934C46.3139 56.2509 46.2494 56.3307 46.2494 56.4291V57.7354C46.2494 57.8338 46.3139 57.9136 46.3934 57.9136H49.8698C49.9494 57.9136 50.0138 57.8338 50.0138 57.7354V56.4291C50.0138 56.3307 49.9494 56.2509 49.8698 56.2509Z" fill="black"/>
<path opacity="0.1" d="M37.0884 59.5066H33.612C33.5325 59.5066 33.468 59.5864 33.468 59.6849V60.9911C33.468 61.0896 33.5325 61.1694 33.612 61.1694H37.0884C37.1679 61.1694 37.2324 61.0896 37.2324 60.9911V59.6849C37.2324 59.5864 37.1679 59.5066 37.0884 59.5066Z" fill="black"/>
<path opacity="0.1" d="M41.3482 59.5066H37.8719C37.7923 59.5066 37.7278 59.5864 37.7278 59.6849V60.9911C37.7278 61.0896 37.7923 61.1694 37.8719 61.1694H41.3482C41.4278 61.1694 41.4923 61.0896 41.4923 60.9911V59.6849C41.4923 59.5864 41.4278 59.5066 41.3482 59.5066Z" fill="black"/>
<path opacity="0.1" d="M45.6081 59.5066H42.1318C42.0522 59.5066 41.9877 59.5864 41.9877 59.6849V60.9911C41.9877 61.0896 42.0522 61.1694 42.1318 61.1694H45.6081C45.6877 61.1694 45.7522 61.0896 45.7522 60.9911V59.6849C45.7522 59.5864 45.6877 59.5066 45.6081 59.5066Z" fill="black"/>
<path opacity="0.1" d="M37.0884 62.6809H33.612C33.5325 62.6809 33.468 62.7607 33.468 62.8592V64.1654C33.468 64.2639 33.5325 64.3437 33.612 64.3437H37.0884C37.1679 64.3437 37.2324 64.2639 37.2324 64.1654V62.8592C37.2324 62.7607 37.1679 62.6809 37.0884 62.6809Z" fill="black"/>
<path opacity="0.1" d="M41.3482 62.6809H37.8719C37.7923 62.6809 37.7278 62.7607 37.7278 62.8592V64.1654C37.7278 64.2639 37.7923 64.3437 37.8719 64.3437H41.3482C41.4278 64.3437 41.4923 64.2639 41.4923 64.1654V62.8592C41.4923 62.7607 41.4278 62.6809 41.3482 62.6809Z" fill="black"/>
<path opacity="0.1" d="M45.6081 62.6809H42.1318C42.0522 62.6809 41.9877 62.7607 41.9877 62.8592V64.1654C41.9877 64.2639 42.0522 64.3437 42.1318 64.3437H45.6081C45.6877 64.3437 45.7522 64.2639 45.7522 64.1654V62.8592C45.7522 62.7607 45.6877 62.6809 45.6081 62.6809Z" fill="black"/>
<path opacity="0.1" d="M37.0884 66.183H33.612C33.5325 66.183 33.468 66.2628 33.468 66.3612V67.6675C33.468 67.7659 33.5325 67.8457 33.612 67.8457H37.0884C37.1679 67.8457 37.2324 67.7659 37.2324 67.6675V66.3612C37.2324 66.2628 37.1679 66.183 37.0884 66.183Z" fill="black"/>
<path opacity="0.1" d="M41.3482 66.183H37.8719C37.7923 66.183 37.7278 66.2628 37.7278 66.3612V67.6675C37.7278 67.7659 37.7923 67.8457 37.8719 67.8457H41.3482C41.4278 67.8457 41.4923 67.7659 41.4923 67.6675V66.3612C41.4923 66.2628 41.4278 66.183 41.3482 66.183Z" fill="black"/>
<path opacity="0.1" d="M45.6081 66.183H42.1318C42.0522 66.183 41.9877 66.2628 41.9877 66.3612V67.6675C41.9877 67.7659 42.0522 67.8457 42.1318 67.8457H45.6081C45.6877 67.8457 45.7522 67.7659 45.7522 67.6675V66.3612C45.7522 66.2628 45.6877 66.183 45.6081 66.183Z" fill="black"/>
<path opacity="0.1" d="M49.8698 59.5066H46.3934C46.3139 59.5066 46.2494 59.5864 46.2494 59.6849V60.9911C46.2494 61.0896 46.3139 61.1694 46.3934 61.1694H49.8698C49.9494 61.1694 50.0138 61.0896 50.0138 60.9911V59.6849C50.0138 59.5864 49.9494 59.5066 49.8698 59.5066Z" fill="black"/>
<path opacity="0.1" d="M49.4575 62.5022H46.8395C46.6411 62.5022 46.4803 62.7012 46.4803 62.9467V67.9839C46.4803 68.2294 46.6411 68.4284 46.8395 68.4284H49.4575C49.6559 68.4284 49.8167 68.2294 49.8167 67.9839V62.9467C49.8167 62.7012 49.6559 62.5022 49.4575 62.5022Z" fill="black"/>
</g>
<path d="M37.0884 55.9235H33.612C33.5325 55.9235 33.468 56.0033 33.468 56.1017V57.408C33.468 57.5064 33.5325 57.5862 33.612 57.5862H37.0884C37.1679 57.5862 37.2324 57.5064 37.2324 57.408V56.1017C37.2324 56.0033 37.1679 55.9235 37.0884 55.9235Z" fill="white"/>
<path d="M41.3483 55.9235H37.8719C37.7923 55.9235 37.7278 56.0033 37.7278 56.1017V57.408C37.7278 57.5064 37.7923 57.5862 37.8719 57.5862H41.3483C41.4278 57.5862 41.4923 57.5064 41.4923 57.408V56.1017C41.4923 56.0033 41.4278 55.9235 41.3483 55.9235Z" fill="white"/>
<path d="M45.6081 55.9235H42.1318C42.0522 55.9235 41.9877 56.0033 41.9877 56.1017V57.408C41.9877 57.5064 42.0522 57.5862 42.1318 57.5862H45.6081C45.6877 57.5862 45.7522 57.5064 45.7522 57.408V56.1017C45.7522 56.0033 45.6877 55.9235 45.6081 55.9235Z" fill="white"/>
<path d="M49.8698 55.9235H46.3935C46.3139 55.9235 46.2494 56.0033 46.2494 56.1017V57.408C46.2494 57.5064 46.3139 57.5862 46.3935 57.5862H49.8698C49.9494 57.5862 50.0139 57.5064 50.0139 57.408V56.1017C50.0139 56.0033 49.9494 55.9235 49.8698 55.9235Z" fill="#2F2E41"/>
<path d="M37.0884 59.1793H33.612C33.5325 59.1793 33.468 59.2591 33.468 59.3576V60.6638C33.468 60.7623 33.5325 60.8421 33.612 60.8421H37.0884C37.1679 60.8421 37.2324 60.7623 37.2324 60.6638V59.3576C37.2324 59.2591 37.1679 59.1793 37.0884 59.1793Z" fill="white"/>
<path d="M41.3483 59.1793H37.8719C37.7923 59.1793 37.7278 59.2591 37.7278 59.3576V60.6638C37.7278 60.7623 37.7923 60.8421 37.8719 60.8421H41.3483C41.4278 60.8421 41.4923 60.7623 41.4923 60.6638V59.3576C41.4923 59.2591 41.4278 59.1793 41.3483 59.1793Z" fill="white"/>
<path d="M45.6081 59.1793H42.1318C42.0522 59.1793 41.9877 59.2591 41.9877 59.3576V60.6638C41.9877 60.7623 42.0522 60.8421 42.1318 60.8421H45.6081C45.6877 60.8421 45.7522 60.7623 45.7522 60.6638V59.3576C45.7522 59.2591 45.6877 59.1793 45.6081 59.1793Z" fill="white"/>
<path d="M37.0884 62.3536H33.612C33.5325 62.3536 33.468 62.4334 33.468 62.5319V63.8381C33.468 63.9366 33.5325 64.0164 33.612 64.0164H37.0884C37.1679 64.0164 37.2324 63.9366 37.2324 63.8381V62.5319C37.2324 62.4334 37.1679 62.3536 37.0884 62.3536Z" fill="white"/>
<path d="M41.3483 62.3536H37.8719C37.7923 62.3536 37.7278 62.4334 37.7278 62.5319V63.8381C37.7278 63.9366 37.7923 64.0164 37.8719 64.0164H41.3483C41.4278 64.0164 41.4923 63.9366 41.4923 63.8381V62.5319C41.4923 62.4334 41.4278 62.3536 41.3483 62.3536Z" fill="white"/>
<path d="M45.6081 62.3536H42.1318C42.0522 62.3536 41.9877 62.4334 41.9877 62.5319V63.8381C41.9877 63.9366 42.0522 64.0164 42.1318 64.0164H45.6081C45.6877 64.0164 45.7522 63.9366 45.7522 63.8381V62.5319C45.7522 62.4334 45.6877 62.3536 45.6081 62.3536Z" fill="white"/>
<path d="M37.0884 65.8556H33.612C33.5325 65.8556 33.468 65.9354 33.468 66.0338V67.3401C33.468 67.4385 33.5325 67.5183 33.612 67.5183H37.0884C37.1679 67.5183 37.2324 67.4385 37.2324 67.3401V66.0338C37.2324 65.9354 37.1679 65.8556 37.0884 65.8556Z" fill="white"/>
<path d="M41.3483 65.8556H37.8719C37.7923 65.8556 37.7278 65.9354 37.7278 66.0338V67.3401C37.7278 67.4385 37.7923 67.5183 37.8719 67.5183H41.3483C41.4278 67.5183 41.4923 67.4385 41.4923 67.3401V66.0338C41.4923 65.9354 41.4278 65.8556 41.3483 65.8556Z" fill="white"/>
<path d="M45.6081 65.8556H42.1318C42.0522 65.8556 41.9877 65.9354 41.9877 66.0338V67.3401C41.9877 67.4385 42.0522 67.5183 42.1318 67.5183H45.6081C45.6877 67.5183 45.7522 67.4385 45.7522 67.3401V66.0338C45.7522 65.9354 45.6877 65.8556 45.6081 65.8556Z" fill="white"/>
<path d="M49.8698 59.1793H46.3935C46.3139 59.1793 46.2494 59.2591 46.2494 59.3576V60.6638C46.2494 60.7623 46.3139 60.8421 46.3935 60.8421H49.8698C49.9494 60.8421 50.0139 60.7623 50.0139 60.6638V59.3576C50.0139 59.2591 49.9494 59.1793 49.8698 59.1793Z" fill="#2F2E41"/>
<path d="M49.4575 62.1771H46.8395C46.6411 62.1771 46.4803 62.3761 46.4803 62.6216V67.6589C46.4803 67.9044 46.6411 68.1034 46.8395 68.1034H49.4575C49.6559 68.1034 49.8167 67.9044 49.8167 67.6589V62.6216C49.8167 62.3761 49.6559 62.1771 49.4575 62.1771Z" fill="#3B2E5A"/>
<path d="M43.5209 51.8505H41.7175V52.1176H43.5209V51.8505Z" fill="white"/>
<path d="M46.0466 51.8505H44.2433V52.1176H46.0466V51.8505Z" fill="white"/>
<path d="M48.5726 51.8505H46.7693V52.1176H48.5726V51.8505Z" fill="white"/>
</g>
<defs>
<clipPath id="clip0">
<rect width="130" height="174" fill="white"/>
</clipPath>
</defs>
</svg>
